<mxfile host="app.diagrams.net" modified="2021-04-10T08:54:18.643Z" agent="5.0 (Macintosh)" etag="qtfOkcHkpg4XXdYrX5R6" version="14.5.10" type="github">
  <diagram id="C5RBs43oDa-KdzZeNtuy" name="Page-1">
    <mxGraphModel dx="946" dy="552" grid="1" gridSize="10" guides="1" tooltips="1" connect="1" arrows="1" fold="1" page="1" pageScale="1" pageWidth="827" pageHeight="1169" math="0" shadow="0">
      <root>
        <mxCell id="WIyWlLk6GJQsqaUBKTNV-0" />
        <mxCell id="WIyWlLk6GJQsqaUBKTNV-1" parent="WIyWlLk6GJQsqaUBKTNV-0" />
        <mxCell id="ttRt-vh53i4zzdw6C0DJ-4" style="edgeStyle=orthogonalEdgeStyle;rounded=0;orthogonalLoop=1;jettySize=auto;html=1;" edge="1" parent="WIyWlLk6GJQsqaUBKTNV-1" source="WIyWlLk6GJQsqaUBKTNV-3" target="ttRt-vh53i4zzdw6C0DJ-1">
          <mxGeometry relative="1" as="geometry" />
        </mxCell>
        <mxCell id="WIyWlLk6GJQsqaUBKTNV-3" value="Start" style="rounded=1;whiteSpace=wrap;html=1;fontSize=12;glass=0;strokeWidth=1;shadow=0;" parent="WIyWlLk6GJQsqaUBKTNV-1" vertex="1">
          <mxGeometry x="160" y="120" width="120" height="40" as="geometry" />
        </mxCell>
        <mxCell id="ttRt-vh53i4zzdw6C0DJ-7" style="edgeStyle=orthogonalEdgeStyle;rounded=0;orthogonalLoop=1;jettySize=auto;html=1;entryX=0.5;entryY=0;entryDx=0;entryDy=0;" edge="1" parent="WIyWlLk6GJQsqaUBKTNV-1" source="WIyWlLk6GJQsqaUBKTNV-11" target="ttRt-vh53i4zzdw6C0DJ-3">
          <mxGeometry relative="1" as="geometry" />
        </mxCell>
        <mxCell id="WIyWlLk6GJQsqaUBKTNV-11" value="scrie &quot;Rezultatul este &quot; n" style="rounded=1;whiteSpace=wrap;html=1;fontSize=12;glass=0;strokeWidth=1;shadow=0;" parent="WIyWlLk6GJQsqaUBKTNV-1" vertex="1">
          <mxGeometry x="125" y="360" width="190" height="40" as="geometry" />
        </mxCell>
        <mxCell id="ttRt-vh53i4zzdw6C0DJ-5" style="edgeStyle=orthogonalEdgeStyle;rounded=0;orthogonalLoop=1;jettySize=auto;html=1;entryX=0.5;entryY=0;entryDx=0;entryDy=0;" edge="1" parent="WIyWlLk6GJQsqaUBKTNV-1" source="ttRt-vh53i4zzdw6C0DJ-1" target="ttRt-vh53i4zzdw6C0DJ-2">
          <mxGeometry relative="1" as="geometry" />
        </mxCell>
        <mxCell id="ttRt-vh53i4zzdw6C0DJ-1" value="citeste n" style="rounded=1;whiteSpace=wrap;html=1;fontSize=12;glass=0;strokeWidth=1;shadow=0;" vertex="1" parent="WIyWlLk6GJQsqaUBKTNV-1">
          <mxGeometry x="160" y="200" width="120" height="40" as="geometry" />
        </mxCell>
        <mxCell id="ttRt-vh53i4zzdw6C0DJ-6" style="edgeStyle=orthogonalEdgeStyle;rounded=0;orthogonalLoop=1;jettySize=auto;html=1;" edge="1" parent="WIyWlLk6GJQsqaUBKTNV-1" source="ttRt-vh53i4zzdw6C0DJ-2" target="WIyWlLk6GJQsqaUBKTNV-11">
          <mxGeometry relative="1" as="geometry" />
        </mxCell>
        <mxCell id="ttRt-vh53i4zzdw6C0DJ-2" value="n &amp;lt;- n + 10" style="rounded=1;whiteSpace=wrap;html=1;fontSize=12;glass=0;strokeWidth=1;shadow=0;" vertex="1" parent="WIyWlLk6GJQsqaUBKTNV-1">
          <mxGeometry x="160" y="280" width="120" height="40" as="geometry" />
        </mxCell>
        <mxCell id="ttRt-vh53i4zzdw6C0DJ-3" value="Sfarsit" style="rounded=1;whiteSpace=wrap;html=1;fontSize=12;glass=0;strokeWidth=1;shadow=0;" vertex="1" parent="WIyWlLk6GJQsqaUBKTNV-1">
          <mxGeometry x="160" y="440" width="120" height="40" as="geometry" />
        </mxCell>
        <mxCell id="ttRt-vh53i4zzdw6C0DJ-8" value="" style="shape=table;html=1;whiteSpace=wrap;startSize=0;container=1;collapsible=0;childLayout=tableLayout;" vertex="1" parent="WIyWlLk6GJQsqaUBKTNV-1">
          <mxGeometry x="320" y="50" width="260" height="430" as="geometry" />
        </mxCell>
        <mxCell id="ttRt-vh53i4zzdw6C0DJ-33" style="shape=partialRectangle;html=1;whiteSpace=wrap;collapsible=0;dropTarget=0;pointerEvents=0;fillColor=none;top=0;left=0;bottom=0;right=0;points=[[0,0.5],[1,0.5]];portConstraint=eastwest;" vertex="1" parent="ttRt-vh53i4zzdw6C0DJ-8">
          <mxGeometry width="260" height="60" as="geometry" />
        </mxCell>
        <mxCell id="ttRt-vh53i4zzdw6C0DJ-34" value="n" style="shape=partialRectangle;html=1;whiteSpace=wrap;connectable=0;fillColor=none;top=0;left=0;bottom=0;right=0;overflow=hidden;" vertex="1" parent="ttRt-vh53i4zzdw6C0DJ-33">
          <mxGeometry width="83" height="60" as="geometry" />
        </mxCell>
        <mxCell id="ttRt-vh53i4zzdw6C0DJ-35" value="Afisare" style="shape=partialRectangle;html=1;whiteSpace=wrap;connectable=0;fillColor=none;top=0;left=0;bottom=0;right=0;overflow=hidden;" vertex="1" parent="ttRt-vh53i4zzdw6C0DJ-33">
          <mxGeometry x="83" width="177" height="60" as="geometry" />
        </mxCell>
        <mxCell id="ttRt-vh53i4zzdw6C0DJ-24" style="shape=partialRectangle;html=1;whiteSpace=wrap;collapsible=0;dropTarget=0;pointerEvents=0;fillColor=none;top=0;left=0;bottom=0;right=0;points=[[0,0.5],[1,0.5]];portConstraint=eastwest;" vertex="1" parent="ttRt-vh53i4zzdw6C0DJ-8">
          <mxGeometry y="60" width="260" height="70" as="geometry" />
        </mxCell>
        <mxCell id="ttRt-vh53i4zzdw6C0DJ-29" value="?" style="shape=partialRectangle;html=1;whiteSpace=wrap;connectable=0;fillColor=none;top=0;left=0;bottom=0;right=0;overflow=hidden;" vertex="1" parent="ttRt-vh53i4zzdw6C0DJ-24">
          <mxGeometry width="83" height="70" as="geometry" />
        </mxCell>
        <mxCell id="ttRt-vh53i4zzdw6C0DJ-25" style="shape=partialRectangle;html=1;whiteSpace=wrap;connectable=0;fillColor=none;top=0;left=0;bottom=0;right=0;overflow=hidden;" vertex="1" parent="ttRt-vh53i4zzdw6C0DJ-24">
          <mxGeometry x="83" width="177" height="70" as="geometry" />
        </mxCell>
        <mxCell id="ttRt-vh53i4zzdw6C0DJ-9" value="" style="shape=partialRectangle;html=1;whiteSpace=wrap;collapsible=0;dropTarget=0;pointerEvents=0;fillColor=none;top=0;left=0;bottom=0;right=0;points=[[0,0.5],[1,0.5]];portConstraint=eastwest;" vertex="1" parent="ttRt-vh53i4zzdw6C0DJ-8">
          <mxGeometry y="130" width="260" height="80" as="geometry" />
        </mxCell>
        <mxCell id="ttRt-vh53i4zzdw6C0DJ-30" value="5" style="shape=partialRectangle;html=1;whiteSpace=wrap;connectable=0;fillColor=none;top=0;left=0;bottom=0;right=0;overflow=hidden;" vertex="1" parent="ttRt-vh53i4zzdw6C0DJ-9">
          <mxGeometry width="83" height="80" as="geometry" />
        </mxCell>
        <mxCell id="ttRt-vh53i4zzdw6C0DJ-21" style="shape=partialRectangle;html=1;whiteSpace=wrap;connectable=0;fillColor=none;top=0;left=0;bottom=0;right=0;overflow=hidden;" vertex="1" parent="ttRt-vh53i4zzdw6C0DJ-9">
          <mxGeometry x="83" width="177" height="80" as="geometry" />
        </mxCell>
        <mxCell id="ttRt-vh53i4zzdw6C0DJ-13" value="" style="shape=partialRectangle;html=1;whiteSpace=wrap;collapsible=0;dropTarget=0;pointerEvents=0;fillColor=none;top=0;left=0;bottom=0;right=0;points=[[0,0.5],[1,0.5]];portConstraint=eastwest;" vertex="1" parent="ttRt-vh53i4zzdw6C0DJ-8">
          <mxGeometry y="210" width="260" height="80" as="geometry" />
        </mxCell>
        <mxCell id="ttRt-vh53i4zzdw6C0DJ-31" value="15" style="shape=partialRectangle;html=1;whiteSpace=wrap;connectable=0;fillColor=none;top=0;left=0;bottom=0;right=0;overflow=hidden;" vertex="1" parent="ttRt-vh53i4zzdw6C0DJ-13">
          <mxGeometry width="83" height="80" as="geometry" />
        </mxCell>
        <mxCell id="ttRt-vh53i4zzdw6C0DJ-22" style="shape=partialRectangle;html=1;whiteSpace=wrap;connectable=0;fillColor=none;top=0;left=0;bottom=0;right=0;overflow=hidden;" vertex="1" parent="ttRt-vh53i4zzdw6C0DJ-13">
          <mxGeometry x="83" width="177" height="80" as="geometry" />
        </mxCell>
        <mxCell id="ttRt-vh53i4zzdw6C0DJ-17" value="" style="shape=partialRectangle;html=1;whiteSpace=wrap;collapsible=0;dropTarget=0;pointerEvents=0;fillColor=none;top=0;left=0;bottom=0;right=0;points=[[0,0.5],[1,0.5]];portConstraint=eastwest;" vertex="1" parent="ttRt-vh53i4zzdw6C0DJ-8">
          <mxGeometry y="290" width="260" height="90" as="geometry" />
        </mxCell>
        <mxCell id="ttRt-vh53i4zzdw6C0DJ-32" value="15" style="shape=partialRectangle;html=1;whiteSpace=wrap;connectable=0;fillColor=none;top=0;left=0;bottom=0;right=0;overflow=hidden;" vertex="1" parent="ttRt-vh53i4zzdw6C0DJ-17">
          <mxGeometry width="83" height="90" as="geometry" />
        </mxCell>
        <mxCell id="ttRt-vh53i4zzdw6C0DJ-23" value="Rezultatul este 15" style="shape=partialRectangle;html=1;whiteSpace=wrap;connectable=0;fillColor=none;top=0;left=0;bottom=0;right=0;overflow=hidden;" vertex="1" parent="ttRt-vh53i4zzdw6C0DJ-17">
          <mxGeometry x="83" width="177" height="90" as="geometry" />
        </mxCell>
        <mxCell id="ttRt-vh53i4zzdw6C0DJ-44" style="shape=partialRectangle;html=1;whiteSpace=wrap;collapsible=0;dropTarget=0;pointerEvents=0;fillColor=none;top=0;left=0;bottom=0;right=0;points=[[0,0.5],[1,0.5]];portConstraint=eastwest;" vertex="1" parent="ttRt-vh53i4zzdw6C0DJ-8">
          <mxGeometry y="380" width="260" height="50" as="geometry" />
        </mxCell>
        <mxCell id="ttRt-vh53i4zzdw6C0DJ-45" value="15" style="shape=partialRectangle;html=1;whiteSpace=wrap;connectable=0;fillColor=none;top=0;left=0;bottom=0;right=0;overflow=hidden;" vertex="1" parent="ttRt-vh53i4zzdw6C0DJ-44">
          <mxGeometry width="83" height="50" as="geometry" />
        </mxCell>
        <mxCell id="ttRt-vh53i4zzdw6C0DJ-46" style="shape=partialRectangle;html=1;whiteSpace=wrap;connectable=0;fillColor=none;top=0;left=0;bottom=0;right=0;overflow=hidden;" vertex="1" parent="ttRt-vh53i4zzdw6C0DJ-44">
          <mxGeometry x="83" width="177" height="50" as="geometry" />
        </mxCell>
      </root>
    </mxGraphModel>
  </diagram>
</mxfile>
